<mxfile host="app.diagrams.net" modified="2024-01-23T12:51:39.331Z" agent="Mozilla/5.0 (Windows NT 10.0; Win64; x64) AppleWebKit/537.36 (KHTML, like Gecko) Chrome/120.0.0.0 Safari/537.36" version="22.1.21" etag="1dO11CKNiiPIsUS3BjyN" type="github">
  <diagram name="Trang-1" id="5mERUk6f4oCMF9_AeqGe">
    <mxGraphModel>
      <root>
        <mxCell id="0" />
        <mxCell id="1" parent="0" />
      </root>
    </mxGraphModel>
  </diagram>
</mxfile>
